<?xml version="1.0" encoding="UTF-8"?>
<svg xmlns="http://www.w3.org/2000/svg" width="792" height="792" viewBox="0 0 792 792" fill="none"> <path d="M220.145 175.828C226.977 175.828 232.52 181.371 232.52 188.203C232.52 195.035 226.977 200.578 220.145 200.578H200.577V687.328H591.421V200.578H571.827C564.995 200.578 559.452 195.035 559.452 188.203C559.452 181.371 564.995 175.828 571.827 175.828H603.486H603.796C610.628 175.828 616.171 181.371 616.171 188.203V699.392V699.728C616.171 706.559 610.628 712.103 603.796 712.103H188.511H188.201C181.369 712.103 175.826 706.559 175.826 699.728V188.513V188.203C175.826 181.371 181.369 175.828 188.201 175.828H220.145Z" fill="#6085F4"/> <path d="M332.06 48.0051C338.866 48.0051 344.383 53.5221 344.383 60.3281C344.383 67.1341 338.866 72.6511 332.06 72.6511H296.482V175.828H495.513V72.6511L459.935 72.6261C453.127 72.6261 447.612 67.1081 447.612 60.3021C447.612 53.4961 453.129 47.9791 459.935 47.9791L506.623 48.0051L507.888 47.9531C514.72 47.9531 520.263 53.4961 520.263 60.3281V187.893V188.203C520.263 195.035 514.72 200.578 507.888 200.578H284.417H284.107C277.275 200.578 271.732 195.035 271.732 188.203V60.3281H271.784C271.784 53.5221 277.301 48.0051 284.107 48.0051H332.06Z" fill="#6085F4"/> <path d="M379.988 312.469C373.156 312.469 367.613 306.926 367.613 300.094C367.613 293.262 373.156 287.719 379.988 287.719H539.858C546.69 287.719 552.233 293.262 552.233 300.094C552.233 306.926 546.69 312.469 539.858 312.469H379.988ZM379.988 600.188C373.156 600.188 367.613 594.645 367.613 587.813C367.613 580.982 373.156 575.438 379.988 575.438H539.858C546.69 575.438 552.233 580.982 552.233 587.813C552.233 594.645 546.69 600.188 539.858 600.188H379.988ZM379.988 504.281C373.156 504.281 367.613 498.738 367.613 491.906C367.613 485.074 373.156 479.531 379.988 479.531H539.858C546.69 479.531 552.233 485.074 552.233 491.906C552.233 498.738 546.69 504.281 539.858 504.281H379.988ZM379.988 408.375C373.156 408.375 367.613 402.832 367.613 396C367.613 389.168 373.156 383.625 379.988 383.625H539.858C546.69 383.625 552.233 389.194 552.233 396C552.233 402.832 546.69 408.375 539.858 408.375H379.988Z" fill="#6085F4"/> <path d="M256.264 299.502C252.191 294.062 253.299 286.328 258.739 282.229C264.179 278.155 271.913 279.264 275.987 284.704L284.108 295.532L310.199 260.727C314.272 255.288 322.032 254.179 327.472 258.252C332.911 262.325 334.02 270.085 329.947 275.5L294.111 323.272L293.982 323.453C293.286 324.381 292.487 325.206 291.507 325.928C286.067 330.001 278.333 328.893 274.259 323.453L256.264 299.502Z" fill="#6085F4"/> <path d="M256.264 395.409C252.191 389.969 253.299 382.235 258.739 378.136C264.179 374.062 271.913 375.171 275.987 380.611L284.108 391.439L310.199 356.634C314.272 351.195 322.032 350.086 327.472 354.159C332.911 358.232 334.02 365.992 329.947 371.432L294.111 419.204L293.982 419.385C293.286 420.313 292.487 421.138 291.507 421.861C286.067 425.933 278.333 424.826 274.259 419.385L256.264 395.409Z" fill="#6085F4"/> <path d="M256.264 491.31C252.191 485.871 253.299 478.135 258.739 474.038C264.179 469.965 271.913 471.073 275.987 476.513L284.108 487.341L310.199 452.536C314.272 447.097 322.032 445.988 327.472 450.06C332.911 454.133 334.02 461.894 329.947 467.333L294.111 515.105L293.982 515.286C293.286 516.214 292.487 517.039 291.507 517.761C286.067 521.834 278.333 520.726 274.259 515.286L256.264 491.31Z" fill="#6085F4"/> <path d="M256.264 587.221C252.191 581.782 253.299 574.046 258.739 569.949C264.179 565.876 271.913 566.984 275.987 572.424L284.108 583.252L310.199 548.447C314.272 543.008 322.032 541.898 327.472 545.971C332.911 550.044 334.02 557.804 329.947 563.244L294.111 611.015L293.982 611.197C293.286 612.125 292.487 612.95 291.507 613.672C286.067 617.745 278.333 616.637 274.259 611.197L256.264 587.221Z" fill="#6085F4"/> <path d="M220.171 95.9062C227.003 95.9062 232.546 101.449 232.546 108.281C232.546 115.113 227.003 120.656 220.171 120.656H140.249C134.912 120.656 129.988 122.873 126.43 126.431C122.872 129.989 120.655 134.913 120.655 140.25V747.656C120.655 753.045 122.846 757.968 126.379 761.473L126.43 761.526C129.936 765.057 134.861 767.25 140.249 767.25H651.749C657.163 767.25 662.062 765.059 665.567 761.526L665.619 761.473C669.151 757.967 671.343 753.043 671.343 747.656V140.25C671.343 134.862 669.153 129.937 665.619 126.431L665.595 126.405L665.569 126.431C662.011 122.873 657.113 120.656 651.751 120.656H571.829C564.997 120.656 559.454 115.113 559.454 108.281C559.454 101.449 564.997 95.9062 571.829 95.9062H651.751C663.945 95.9062 675.059 100.907 683.075 108.926L683.05 108.952C691.093 116.995 696.095 128.107 696.095 140.25V747.656C696.095 759.799 691.119 770.885 683.075 778.927L683.023 778.98C674.979 787.024 663.893 792 651.751 792H140.251C128.108 792 117.022 787.024 108.979 778.98L108.927 778.927C100.882 770.884 95.9062 759.798 95.9062 747.656V140.25C95.9062 128.056 100.907 116.944 108.926 108.926C116.945 100.908 128.056 95.9062 140.25 95.9062H220.171Z" fill="#6085F4"/> <path d="M395.999 0C405.978 0 415.077 4.099 421.651 10.647L421.703 10.699C428.251 17.273 432.35 26.348 432.35 36.351C432.35 46.329 428.249 55.429 421.703 62.003L421.678 62.029L421.703 62.055C415.154 68.629 406.055 72.702 395.999 72.702C385.944 72.702 376.844 68.603 370.295 62.055C363.721 55.506 359.648 46.38 359.648 36.351C359.648 26.348 363.747 17.273 370.321 10.673L370.295 10.647C376.869 4.099 385.97 0 395.999 0ZM404.249 28.153L404.197 28.101C402.109 26.038 399.221 24.749 395.999 24.749C392.802 24.749 389.889 26.064 387.801 28.152L387.775 28.126L387.749 28.152C385.712 30.189 384.397 33.128 384.397 36.324C384.397 39.52 385.712 42.434 387.8 44.523C389.888 46.611 392.801 47.926 395.998 47.926C399.195 47.926 402.108 46.611 404.196 44.523L404.222 44.548C406.284 42.46 407.574 39.547 407.574 36.324C407.6 33.155 406.311 30.241 404.249 28.153Z" fill="#6085F4"/> </svg>