<?xml version="1.0" encoding="UTF-8"?> <svg xmlns="http://www.w3.org/2000/svg" xmlns:xlink="http://www.w3.org/1999/xlink" version="1.1" id="Layer_1" x="0px" y="0px" viewBox="0 0 511.992 511.992" style="enable-background:new 0 0 511.992 511.992;" xml:space="preserve"><g><g><g><path d="M248.453,451.119c-4.172,4.156-4.172,10.922,0,15.078c4.164,4.172,10.914,4.172,15.078,0 c4.172-4.156,4.172-10.922,0-15.078C259.367,446.947,252.617,446.947,248.453,451.119z" fill="#000000" style="fill: rgb(89, 122, 219);"></path><path d="M248.453,408.447c-4.172,4.172-4.172,10.922,0,15.094c4.164,4.156,10.914,4.156,15.078,0 c4.172-4.172,4.172-10.922,0-15.094C259.367,404.291,252.617,404.291,248.453,408.447z" fill="#000000" style="fill: rgb(89, 122, 219);"></path><path d="M460.21,386.355l-1.812-0.531c-26.469-7.094-35.438-13.938-47.219-18.406c-28.031-10.688-42.156-19.375-49.25-25.578 l-6.094-45.234c19.875-26.875,34.578-59.641,37.25-93.953h11.469c5.859,0,8.406-4.234,5.656-9.406c0,0-3.266-6.125-12.281-14.25 v-26.39c0-74.75-59-136.015-131.288-141.53c0-0.141,0.016-0.281,0.016-0.406C266.657,4.78,261.884,0,255.993,0 c-5.891,0-10.664,4.781-10.664,10.671c0,0.125,0.016,0.266,0.016,0.406c-72.297,5.515-131.289,66.78-131.289,141.529 l-0.008,26.39c-9.008,8.125-12.266,14.25-12.266,14.25c-2.758,5.172-0.211,9.406,5.656,9.406h11.453 c2.68,34.312,17.375,67.078,37.25,93.953l-6.078,45.234c-7.094,6.203-21.219,14.891-49.265,25.578 c-11.781,4.469-20.742,11.312-47.21,18.406l-1.812,0.531c-24.102,7.969-40.305,30.311-40.305,55.529v70.109h201.858h85.319 h201.874v-70.109C500.521,416.666,484.303,394.324,460.21,386.355z M135.384,152.606c0-16.218,3.234-31.968,9.617-46.843 c6.156-14.344,14.953-27.266,26.164-38.391c11.171-11.093,24.117-19.812,38.476-25.921c14.781-6.266,30.375-9.453,46.351-9.453 c15.976,0,31.562,3.188,46.343,9.453c14.375,6.109,27.312,14.828,38.5,25.921c11.188,11.125,20,24.047,26.156,38.391 c6.375,14.875,9.609,30.625,9.609,46.843v11.375c-23.266-12.953-61.047-25.312-120.608-25.312 c-59.57,0-97.351,12.344-120.608,25.312V152.606z M363.866,181.325h-215.74c11.227-5.938,24.438-10.703,39.312-14.218 c20.039-4.719,43.102-7.109,68.554-7.109c25.438,0,48.515,2.391,68.562,7.109C339.428,170.623,352.632,175.388,363.866,181.325z M140.305,202.653h231.374c-2.969,31.953-18.375,65.671-43.312,94.093c-12.25,13.953-25.969,25.641-39.688,33.766 c-12.233,7.266-23.843,11.266-32.687,11.266c-8.844,0-20.453-4-32.687-11.266c-13.719-8.125-27.438-19.812-39.688-33.766 C158.68,268.324,143.274,234.605,140.305,202.653z M213.329,490.666H32.799v-48.781c0-15.906,10.164-29.984,25.328-35.156 l1.195-0.344c19.945-5.373,30.961-10.654,39.812-14.889c3.422-1.641,6.383-3.047,9.258-4.141 c16.148-6.156,36.414-14.719,50.953-25.656l35.375,39.422c2.109,2.344,5.016,3.545,7.945,3.545c2.469,0,4.953-0.857,6.969-2.592 l3.695-3.203V490.666z M203.61,379.074l-32.203-35.875l3.312-24.656c17.242,17.812,36.375,31.359,54.258,38.609L203.61,379.074z M277.336,490.666h-42.68V380.449l20.094-17.359c0.414,0,0.828,0.016,1.242,0.016c0.414,0,0.828-0.016,1.242-0.016l20.102,17.359 V490.666z M283.008,357.152c17.89-7.25,37.015-20.797,54.265-38.609l3.312,24.656l-32.219,35.875L283.008,357.152z M479.178,490.666L479.178,490.666h-180.53v-91.795l3.703,3.203c2.016,1.734,4.5,2.592,6.969,2.592 c2.922,0,5.828-1.201,7.953-3.545l35.375-39.422c14.531,10.938,34.812,19.5,50.969,25.656c2.844,1.094,5.812,2.5,9.234,4.141 c8.859,4.234,19.859,9.516,39.812,14.889l1.203,0.344c15.155,5.172,25.312,19.25,25.312,35.156V490.666z" fill="#000000" style="fill: rgb(89, 122, 219);"></path><path d="M264.843,123.277l21.336-31.765c2.188-3.266,2.405-7.484,0.562-10.953c-1.859-3.484-5.469-5.656-9.406-5.656h-22.664 l10.172-15.141c3.289-4.89,1.984-11.515-2.906-14.812c-4.891-3.281-11.516-1.969-14.797,2.922l-21.335,31.75 c-2.195,3.266-2.414,7.484-0.562,10.969c1.859,3.469,5.476,5.641,9.413,5.641h22.656l-10.172,15.156 c-3.289,4.89-1.984,11.515,2.906,14.796c1.82,1.219,3.891,1.812,5.938,1.812C259.414,127.996,262.789,126.34,264.843,123.277z" fill="#000000" style="fill: rgb(89, 122, 219);"></path></g></g></g></svg> 