<?xml version="1.0" encoding="UTF-8"?>
<svg xmlns="http://www.w3.org/2000/svg" width="60" height="52" viewBox="0 0 60 52" fill="none"> <g clip-path="url(#clip0_611_12)"> <path fill-rule="evenodd" clip-rule="evenodd" d="M40 51C40 51.552 39.552 52 39 52H37C36.448 52 36 51.552 36 51C36 50.448 36.448 50 37 50H39C39.552 50 40 50.448 40 51ZM60 51C60 51.552 59.552 52 59 52H43C42.448 52 42 51.552 42 51C42 50.448 42.448 50 43 50H59C59.552 50 60 50.448 60 51ZM32 51C32 51.552 31.552 52 31 52H21C20.448 52 20 51.552 20 51C20 50.448 20.448 50 21 50H31C31.552 50 32 50.448 32 51ZM16 51C16 51.552 15.552 52 15 52H1C0.448 52 0 51.552 0 51C0 50.448 0.448 50 1 50H15C15.552 50 16 50.448 16 51ZM2 31C2 30.448 2.448 30 3 30H5.84L5.417 27.147C5.336 26.601 5.713 26.092 6.259 26.011C6.809 25.934 7.315 26.307 7.396 26.853L7.863 30H15C15.552 30 16 30.448 16 31C16 31.552 15.552 32 15 32H3C2.448 32 2 31.552 2 31ZM3 22H4.559L4.136 19.147C4.055 18.601 4.432 18.092 4.978 18.011C5.528 17.935 6.034 18.307 6.114 18.853L6.582 22H15C15.552 22 16 22.448 16 23C16 23.552 15.552 24 15 24H3C2.448 24 2 23.552 2 23C2 22.448 2.448 22 3 22ZM15 42C14.449 42 14 41.551 14 41C14 40.449 14.449 40 15 40C15.551 40 16 40.449 16 41C16 41.551 15.551 42 15 42ZM15 38C13.346 38 12 39.346 12 41C12 42.654 13.346 44 15 44C16.654 44 18 42.654 18 41C18 39.346 16.654 38 15 38ZM49 42C48.449 42 48 41.551 48 41C48 40.449 48.449 40 49 40C49.551 40 50 40.449 50 41C50 41.551 49.551 42 49 42ZM49 38C47.346 38 46 39.346 46 41C46 42.654 47.346 44 49 44C50.654 44 52 42.654 52 41C52 39.346 50.654 38 49 38ZM49 46C46.243 46 44 43.757 44 41C44 38.243 46.243 36 49 36C51.757 36 54 38.243 54 41C54 43.757 51.757 46 49 46ZM58.707 25.293L55.966 22.552L55 11C55 8.243 52.757 6 50 6H43C42.448 6 42 6.448 42 7C42 7.552 42.448 8 43 8H50C51.626 8 53 9.374 53.003 11.083L53.913 22H50.618L51.895 19.447C52.142 18.953 51.941 18.353 51.447 18.105C50.952 17.858 50.353 18.059 50.105 18.553L48.382 22H43C42.448 22 42 22.448 42 23C42 23.552 42.448 24 43 24H54.586L57.293 26.707C57.863 27.277 57.998 28.588 58 29V40H55.92C55.433 36.613 52.52 34 49 34C45.14 34 42 37.14 42 41C42 44.86 45.14 48 49 48C52.52 48 55.433 45.387 55.92 42H59C59.552 42 60 41.552 60 41V29C60 28.753 59.964 26.549 58.707 25.293ZM15 46C12.243 46 10 43.757 10 41C10 38.243 12.243 36 15 36C17.757 36 20 38.243 20 41C20 43.757 17.757 46 15 46ZM39 0H7C4.243 0 2 2.243 2 5C2 5.05 2.004 5.099 2.011 5.148L3.339 14H1C0.448 14 0 14.448 0 15C0 15.552 0.448 16 1 16H15C15.552 16 16 15.552 16 15C16 14.448 15.552 14 15 14H5.361L4.001 4.931C4.038 3.309 5.369 2 7 2H38V40H21.92C21.433 36.613 18.52 34 15 34C11.14 34 8 37.14 8 41C8 44.86 11.14 48 15 48C18.52 48 21.433 45.387 21.92 42H39C39.552 42 40 41.552 40 41V1C40 0.448 39.552 0 39 0Z" fill="#6085F4"/> </g> <defs> <clipPath id="clip0_611_12"> <rect width="60" height="52" fill="white"/> </clipPath> </defs> </svg>