<?xml version="1.0" encoding="UTF-8"?>
<svg xmlns="http://www.w3.org/2000/svg" width="844" height="321" viewBox="0 0 844 321" fill="none"><path d="M509.13 40.5299C507.53 40.1899 505.22 38.51 504.44 36.11C504.11 35.11 504.63 35.68 503.8 39.24C502.22 46.04 497.54 56.6099 489.84 70.6199C474.66 98.2399 450.78 133.99 427.61 169.83C404.89 204.97 382.53 240.67 372.02 266.55C369.35 273.13 367.23 279.58 366.13 285.57C365.07 291.33 364.67 298.13 366.96 304.52C369.58 311.83 375.18 317.11 382.71 319.4C389.35 321.42 396.63 320.88 403.56 319.4L397.64 291.61C395.35 292.1 393.66 292.28 392.49 292.3C391.31 292.32 390.89 292.18 390.99 292.21C391.88 292.48 393.24 293.61 393.72 294.94C393.87 295.35 393.42 294.32 394.08 290.7C394.7 287.32 396.08 282.84 398.36 277.23C407.65 254.34 428.35 221.03 451.48 185.25C474.16 150.17 498.93 113.09 514.76 84.29C522.56 70.09 528.96 56.5699 531.5 45.6599C532.73 40.3599 533.56 33.6799 531.48 27.3099C528.95 19.5399 522.83 14.38 515.04 12.73L509.15 40.5299H509.13ZM175.99 271.78C190.97 275.79 206.91 273.43 222.36 267.94C237.88 262.42 254.09 253.33 270.36 242.27C302.88 220.17 337.72 188.81 370.6 157.71C403.9 126.22 434.93 95.2799 461.14 72.4499C474.21 61.0699 485.46 52.27 494.62 46.68C499.19 43.89 502.83 42.1699 505.58 41.2699C508.43 40.3399 509.38 40.59 509.12 40.54L515.01 12.74C508.56 11.37 502.19 12.4799 496.72 14.2699C491.15 16.0999 485.46 18.99 479.83 22.42C468.58 29.27 455.9 39.3299 442.47 51.0199C415.69 74.3399 383.49 106.4 351.06 137.06C318.22 168.12 284.83 198.07 254.38 218.76C239.16 229.1 225.2 236.76 212.83 241.16C200.39 245.58 190.7 246.3 183.32 244.32L175.98 271.77L175.99 271.78ZM276.72 38.9699C263.88 62.8099 245.46 86.27 225.86 108.8C216.09 120.03 206.16 130.88 196.57 141.39C187.04 151.83 177.8 161.99 169.66 171.59C161.55 181.16 154.23 190.52 148.64 199.43C143.16 208.17 138.64 217.54 137.32 227.03C135.9 237.25 138.27 247.45 146.01 255.84C153.13 263.56 163.65 268.48 175.99 271.78L183.33 244.33C173.31 241.65 168.77 238.6 166.89 236.57C165.64 235.21 165.05 233.86 165.46 230.94C165.97 227.28 168.06 221.93 172.7 214.53C177.23 207.31 183.55 199.13 191.33 189.97C199.08 180.83 207.97 171.05 217.56 160.55C227.09 150.11 237.26 139 247.3 127.46C267.32 104.45 287.38 79.1099 301.74 52.4499L276.72 38.9699ZM13.6803 127.88C69.5403 99.5699 150.16 62.3799 211.05 42.3399C226.23 37.3499 239.93 33.4999 251.55 31.1199C263.41 28.6899 272.13 27.99 277.75 28.61C283.79 29.27 281.87 30.7399 280.89 28.1299C280.48 27.0299 281.83 29.4699 276.72 38.9699L301.74 52.4499C307.5 41.7499 311.71 29.4399 307.52 18.2099C302.77 5.45994 290.44 1.41991 280.84 0.369909C270.82 -0.730091 258.67 0.659953 245.84 3.28995C232.77 5.96995 217.94 10.1599 202.16 15.3499C139.22 36.0599 57.0903 74.0099 0.820312 102.53L13.6703 127.88H13.6803Z" fill="#40BCEE"/></svg>