<?xml version="1.0" encoding="UTF-8"?>
<svg xmlns="http://www.w3.org/2000/svg" width="612" height="612" viewBox="0 0 612 612" fill="none"> <g clip-path="url(#clip0_908_68)"> <path d="M19.125 306C19.125 385.209 51.239 456.928 103.136 508.845C155.052 560.741 226.771 592.856 305.98 592.856C385.189 592.856 456.928 560.743 508.845 508.845C560.741 456.928 592.856 385.209 592.856 306C592.856 226.791 560.743 155.072 508.826 103.155C456.95 51.259 385.23 19.125 306.002 19.125C226.793 19.125 155.054 51.239 103.157 103.136C51.259 155.052 19.125 226.791 19.125 306ZM89.628 522.371C34.266 467.009 0 390.509 0 306C0 221.491 34.246 144.991 89.628 89.628C144.991 34.266 221.491 0 306 0C390.509 0 467.028 34.266 522.371 89.628C577.754 145.011 612 221.491 612 306C612 390.509 577.734 467.009 522.392 522.371C467.028 577.734 390.509 612 306 612C221.491 612 144.991 577.734 89.628 522.371Z" fill="#6085F4"/> <path d="M357.219 557.434C352.079 558.47 347.039 555.104 346.025 549.963C344.989 544.823 348.354 539.783 353.496 538.768C408.161 527.692 456.054 497.789 490.059 456.131C523.449 415.233 543.49 362.957 543.49 306C543.49 240.417 516.915 181.05 473.943 138.079C430.97 95.1072 371.583 68.5312 306 68.5312C240.417 68.5312 181.05 95.1273 138.099 138.078C95.1273 181.05 68.5513 240.417 68.5513 306C68.5513 371.583 95.1473 430.95 138.098 473.901C181.05 516.873 240.437 543.449 306 543.449C311.279 543.449 315.562 547.732 315.562 553.011C315.562 558.291 311.28 562.574 306 562.574C235.138 562.574 170.989 533.845 124.571 487.428C78.1343 441.011 49.4062 376.862 49.4062 306C49.4062 235.138 78.1343 170.989 124.552 124.552C170.99 78.1143 235.118 49.4062 305.98 49.4062C376.842 49.4062 440.99 78.1343 487.429 124.552C533.867 170.99 562.575 235.138 562.575 306C562.575 367.459 540.92 423.938 504.821 468.145C468.084 513.146 416.327 545.461 357.219 557.434Z" fill="#6085F4"/> <path d="M315.562 367.758C315.562 373.037 311.28 377.321 306 377.321C300.72 377.321 296.438 373.038 296.438 367.758V306V157.801C296.438 152.522 300.72 148.238 306 148.238C311.28 148.238 315.562 152.521 315.562 157.801V306V367.758Z" fill="#6085F4"/> <path d="M244.242 315.562C238.963 315.562 234.679 311.28 234.679 306C234.679 300.72 238.962 296.438 244.242 296.438H306H454.219C459.498 296.438 463.782 300.74 463.782 306C463.782 311.279 459.499 315.562 454.219 315.562H306H244.242Z" fill="#6085F4"/> <path d="M96.0426 296.438C101.322 296.438 105.606 300.741 105.606 306.001C105.606 311.28 101.323 315.564 96.0426 315.564H65.1646C59.8856 315.564 55.6016 311.281 55.6016 306.001C55.6016 300.721 59.8846 296.438 65.1646 296.438H96.0426Z" fill="#6085F4"/> <path d="M546.855 296.438C552.133 296.438 556.417 300.741 556.417 306.001C556.417 311.28 552.134 315.564 546.855 315.564H515.975C510.697 315.564 506.413 311.281 506.413 306.001C506.413 300.721 510.696 296.438 515.975 296.438H546.855Z" fill="#6085F4"/> <path d="M296.438 515.976C296.438 510.698 300.721 506.414 306.001 506.414C311.281 506.414 315.564 510.697 315.564 515.976V553.032C315.564 558.31 311.281 562.594 306.001 562.594C300.721 562.594 296.438 558.311 296.438 553.032V515.976Z" fill="#6085F4"/> <path d="M296.438 65.145C296.438 59.866 300.721 55.582 306.001 55.582C311.281 55.582 315.564 59.865 315.564 65.145V96.024C315.564 101.303 311.281 105.587 306.001 105.587C300.721 105.587 296.438 101.304 296.438 96.024V65.145Z" fill="#6085F4"/> <path d="M150.769 447.703C154.495 443.976 160.571 443.976 164.296 447.703C168.021 451.429 168.021 457.505 164.296 461.229L142.462 483.063C138.736 486.79 132.66 486.79 128.935 483.063C125.209 479.337 125.209 473.261 128.935 469.538L150.769 447.703Z" fill="#6085F4"/> <path d="M469.539 128.916C473.264 125.19 479.34 125.19 483.065 128.916C486.791 132.641 486.791 138.717 483.065 142.443L461.231 164.277C457.504 168.002 451.428 168.002 447.704 164.277C443.977 160.551 443.977 154.475 447.704 150.75L469.539 128.916Z" fill="#6085F4"/> <path d="M164.296 150.749C168.021 154.474 168.021 160.55 164.296 164.276C160.57 168.001 154.494 168.001 150.769 164.276L128.935 142.462C125.209 138.736 125.209 132.66 128.935 128.935C132.66 125.209 138.736 125.209 142.462 128.935L164.296 150.749Z" fill="#6085F4"/> <path d="M483.065 469.539C486.791 473.264 486.791 479.34 483.065 483.065C479.338 486.79 473.262 486.791 469.539 483.065L447.704 461.231C443.977 457.504 443.977 451.428 447.704 447.704C451.43 443.979 457.506 443.978 461.231 447.704L483.065 469.539Z" fill="#6085F4"/> </g> <defs> <clipPath id="clip0_908_68"> <rect width="612" height="612" fill="white"/> </clipPath> </defs> </svg>